<mxfile host="app.diagrams.net" modified="2021-06-22T08:57:34.577Z" agent="5.0 (Windows NT 10.0; Win64; x64) AppleWebKit/537.36 (KHTML, like Gecko) Chrome/91.0.4472.106 Safari/537.36" etag="Obkx2wY29UF1jObK2CfS" version="14.8.0" type="github" pages="5">
  <diagram id="6a731a19-8d31-9384-78a2-239565b7b9f0" name="SI_ACC80001">
    <mxGraphModel dx="868" dy="450" grid="1" gridSize="10" guides="1" tooltips="1" connect="1" arrows="1" fold="1" page="1" pageScale="1" pageWidth="1169" pageHeight="827" background="none" math="0" shadow="0">
      <root>
        <mxCell id="0" />
        <mxCell id="1" parent="0" />
        <mxCell id="2" value="start" style="shape=mxgraph.flowchart.terminator;strokeWidth=2;gradientColor=none;gradientDirection=north;fontStyle=0;html=1;" parent="1" vertex="1">
          <mxGeometry x="260" y="60" width="120" height="30" as="geometry" />
        </mxCell>
        <mxCell id="7" style="fontStyle=1;strokeColor=#003366;strokeWidth=1;html=1;" parent="1" source="2" edge="1">
          <mxGeometry relative="1" as="geometry">
            <mxPoint x="320" y="130" as="targetPoint" />
          </mxGeometry>
        </mxCell>
        <mxCell id="40" value="end" style="shape=mxgraph.flowchart.terminator;strokeWidth=2;gradientColor=none;gradientDirection=north;fontStyle=0;html=1;" parent="1" vertex="1">
          <mxGeometry x="260" y="1190" width="120" height="30" as="geometry" />
        </mxCell>
        <mxCell id="43" value="" style="edgeStyle=elbowEdgeStyle;elbow=vertical;entryX=0.5;entryY=0;entryPerimeter=0;fontStyle=1;strokeColor=#003366;strokeWidth=1;html=1;" parent="1" target="40" edge="1">
          <mxGeometry y="-720" width="100" height="100" as="geometry">
            <mxPoint x="320" y="1150" as="sourcePoint" />
            <mxPoint x="100" y="-720" as="targetPoint" />
          </mxGeometry>
        </mxCell>
        <mxCell id="XqcrUaqYiDmMF5uCV5Nd-58" style="edgeStyle=orthogonalEdgeStyle;rounded=0;orthogonalLoop=1;jettySize=auto;html=1;entryX=0.5;entryY=0;entryDx=0;entryDy=0;" parent="1" source="XqcrUaqYiDmMF5uCV5Nd-55" target="XqcrUaqYiDmMF5uCV5Nd-57" edge="1">
          <mxGeometry relative="1" as="geometry" />
        </mxCell>
        <mxCell id="XqcrUaqYiDmMF5uCV5Nd-55" value="" style="rounded=0;whiteSpace=wrap;html=1;" parent="1" vertex="1">
          <mxGeometry x="260" y="130" width="120" height="60" as="geometry" />
        </mxCell>
        <mxCell id="XqcrUaqYiDmMF5uCV5Nd-56" value="交易前处理" style="text;html=1;strokeColor=none;fillColor=none;align=center;verticalAlign=middle;whiteSpace=wrap;rounded=0;" parent="1" vertex="1">
          <mxGeometry x="280" y="150" width="80" height="20" as="geometry" />
        </mxCell>
        <mxCell id="XqcrUaqYiDmMF5uCV5Nd-62" style="edgeStyle=orthogonalEdgeStyle;rounded=0;orthogonalLoop=1;jettySize=auto;html=1;exitX=0.5;exitY=1;exitDx=0;exitDy=0;entryX=0.5;entryY=0;entryDx=0;entryDy=0;" parent="1" source="XqcrUaqYiDmMF5uCV5Nd-57" target="XqcrUaqYiDmMF5uCV5Nd-60" edge="1">
          <mxGeometry relative="1" as="geometry" />
        </mxCell>
        <mxCell id="XqcrUaqYiDmMF5uCV5Nd-57" value="" style="rounded=0;whiteSpace=wrap;html=1;" parent="1" vertex="1">
          <mxGeometry x="260" y="240" width="120" height="60" as="geometry" />
        </mxCell>
        <mxCell id="XqcrUaqYiDmMF5uCV5Nd-59" value="电子账户信息查询" style="text;html=1;strokeColor=none;fillColor=none;align=center;verticalAlign=middle;whiteSpace=wrap;rounded=0;" parent="1" vertex="1">
          <mxGeometry x="260" y="260" width="120" height="20" as="geometry" />
        </mxCell>
        <mxCell id="XqcrUaqYiDmMF5uCV5Nd-65" style="edgeStyle=orthogonalEdgeStyle;rounded=0;orthogonalLoop=1;jettySize=auto;html=1;exitX=0.5;exitY=1;exitDx=0;exitDy=0;entryX=0.5;entryY=0;entryDx=0;entryDy=0;" parent="1" source="XqcrUaqYiDmMF5uCV5Nd-60" target="XqcrUaqYiDmMF5uCV5Nd-63" edge="1">
          <mxGeometry relative="1" as="geometry" />
        </mxCell>
        <mxCell id="XqcrUaqYiDmMF5uCV5Nd-60" value="" style="rounded=0;whiteSpace=wrap;html=1;" parent="1" vertex="1">
          <mxGeometry x="260" y="340" width="120" height="50" as="geometry" />
        </mxCell>
        <mxCell id="XqcrUaqYiDmMF5uCV5Nd-61" value="绑卡标记查询" style="text;html=1;strokeColor=none;fillColor=none;align=center;verticalAlign=middle;whiteSpace=wrap;rounded=0;" parent="1" vertex="1">
          <mxGeometry x="260" y="355" width="120" height="20" as="geometry" />
        </mxCell>
        <mxCell id="XqcrUaqYiDmMF5uCV5Nd-68" style="edgeStyle=orthogonalEdgeStyle;rounded=0;orthogonalLoop=1;jettySize=auto;html=1;exitX=0.5;exitY=1;exitDx=0;exitDy=0;entryX=0.5;entryY=0;entryDx=0;entryDy=0;" parent="1" source="XqcrUaqYiDmMF5uCV5Nd-63" target="XqcrUaqYiDmMF5uCV5Nd-66" edge="1">
          <mxGeometry relative="1" as="geometry" />
        </mxCell>
        <mxCell id="XqcrUaqYiDmMF5uCV5Nd-63" value="" style="rounded=0;whiteSpace=wrap;html=1;" parent="1" vertex="1">
          <mxGeometry x="260" y="430" width="120" height="40" as="geometry" />
        </mxCell>
        <mxCell id="XqcrUaqYiDmMF5uCV5Nd-64" value="生成流水号" style="text;html=1;strokeColor=none;fillColor=none;align=center;verticalAlign=middle;whiteSpace=wrap;rounded=0;" parent="1" vertex="1">
          <mxGeometry x="260" y="440" width="120" height="20" as="geometry" />
        </mxCell>
        <mxCell id="XqcrUaqYiDmMF5uCV5Nd-71" style="edgeStyle=orthogonalEdgeStyle;rounded=0;orthogonalLoop=1;jettySize=auto;html=1;entryX=0;entryY=0.5;entryDx=0;entryDy=0;" parent="1" source="XqcrUaqYiDmMF5uCV5Nd-66" target="XqcrUaqYiDmMF5uCV5Nd-69" edge="1">
          <mxGeometry relative="1" as="geometry" />
        </mxCell>
        <mxCell id="XqcrUaqYiDmMF5uCV5Nd-73" style="edgeStyle=orthogonalEdgeStyle;rounded=0;orthogonalLoop=1;jettySize=auto;html=1;exitX=0.5;exitY=1;exitDx=0;exitDy=0;" parent="1" source="XqcrUaqYiDmMF5uCV5Nd-66" edge="1">
          <mxGeometry relative="1" as="geometry">
            <mxPoint x="320" y="650" as="targetPoint" />
          </mxGeometry>
        </mxCell>
        <mxCell id="XqcrUaqYiDmMF5uCV5Nd-66" value="" style="rhombus;whiteSpace=wrap;html=1;" parent="1" vertex="1">
          <mxGeometry x="280" y="510" width="80" height="80" as="geometry" />
        </mxCell>
        <mxCell id="XqcrUaqYiDmMF5uCV5Nd-67" value="密码是否为空" style="text;html=1;strokeColor=none;fillColor=none;align=center;verticalAlign=middle;whiteSpace=wrap;rounded=0;" parent="1" vertex="1">
          <mxGeometry x="300" y="540" width="40" height="20" as="geometry" />
        </mxCell>
        <mxCell id="XqcrUaqYiDmMF5uCV5Nd-69" value="" style="rounded=0;whiteSpace=wrap;html=1;" parent="1" vertex="1">
          <mxGeometry x="440" y="525" width="120" height="50" as="geometry" />
        </mxCell>
        <mxCell id="XqcrUaqYiDmMF5uCV5Nd-70" value="调用核心验证密码" style="text;html=1;strokeColor=none;fillColor=none;align=center;verticalAlign=middle;whiteSpace=wrap;rounded=0;" parent="1" vertex="1">
          <mxGeometry x="472.5" y="540" width="55" height="15" as="geometry" />
        </mxCell>
        <mxCell id="XqcrUaqYiDmMF5uCV5Nd-72" value="否" style="text;html=1;strokeColor=none;fillColor=none;align=center;verticalAlign=middle;whiteSpace=wrap;rounded=0;" parent="1" vertex="1">
          <mxGeometry x="380" y="525" width="40" height="20" as="geometry" />
        </mxCell>
        <mxCell id="XqcrUaqYiDmMF5uCV5Nd-75" value="是" style="text;html=1;strokeColor=none;fillColor=none;align=center;verticalAlign=middle;whiteSpace=wrap;rounded=0;" parent="1" vertex="1">
          <mxGeometry x="290" y="600" width="40" height="20" as="geometry" />
        </mxCell>
        <mxCell id="XqcrUaqYiDmMF5uCV5Nd-81" style="edgeStyle=orthogonalEdgeStyle;rounded=0;orthogonalLoop=1;jettySize=auto;html=1;exitX=0.5;exitY=1;exitDx=0;exitDy=0;entryX=0.5;entryY=0;entryDx=0;entryDy=0;" parent="1" source="XqcrUaqYiDmMF5uCV5Nd-77" target="XqcrUaqYiDmMF5uCV5Nd-79" edge="1">
          <mxGeometry relative="1" as="geometry" />
        </mxCell>
        <mxCell id="XqcrUaqYiDmMF5uCV5Nd-82" style="edgeStyle=orthogonalEdgeStyle;rounded=0;orthogonalLoop=1;jettySize=auto;html=1;exitX=1;exitY=0.5;exitDx=0;exitDy=0;entryX=0;entryY=0.5;entryDx=0;entryDy=0;" parent="1" source="XqcrUaqYiDmMF5uCV5Nd-77" target="XqcrUaqYiDmMF5uCV5Nd-80" edge="1">
          <mxGeometry relative="1" as="geometry" />
        </mxCell>
        <mxCell id="XqcrUaqYiDmMF5uCV5Nd-77" value="" style="rhombus;whiteSpace=wrap;html=1;" parent="1" vertex="1">
          <mxGeometry x="280" y="650" width="80" height="80" as="geometry" />
        </mxCell>
        <mxCell id="XqcrUaqYiDmMF5uCV5Nd-78" value="是否为电子账户消费" style="text;html=1;strokeColor=none;fillColor=none;align=center;verticalAlign=middle;whiteSpace=wrap;rounded=0;" parent="1" vertex="1">
          <mxGeometry x="300" y="680" width="40" height="20" as="geometry" />
        </mxCell>
        <mxCell id="XqcrUaqYiDmMF5uCV5Nd-88" style="edgeStyle=orthogonalEdgeStyle;rounded=0;orthogonalLoop=1;jettySize=auto;html=1;exitX=0.5;exitY=1;exitDx=0;exitDy=0;" parent="1" source="XqcrUaqYiDmMF5uCV5Nd-79" target="XqcrUaqYiDmMF5uCV5Nd-87" edge="1">
          <mxGeometry relative="1" as="geometry" />
        </mxCell>
        <mxCell id="XqcrUaqYiDmMF5uCV5Nd-79" value="" style="rounded=0;whiteSpace=wrap;html=1;" parent="1" vertex="1">
          <mxGeometry x="260" y="770" width="120" height="60" as="geometry" />
        </mxCell>
        <mxCell id="XqcrUaqYiDmMF5uCV5Nd-90" style="edgeStyle=orthogonalEdgeStyle;rounded=0;orthogonalLoop=1;jettySize=auto;html=1;exitX=0.5;exitY=1;exitDx=0;exitDy=0;entryX=1;entryY=0.5;entryDx=0;entryDy=0;" parent="1" source="XqcrUaqYiDmMF5uCV5Nd-80" target="XqcrUaqYiDmMF5uCV5Nd-89" edge="1">
          <mxGeometry relative="1" as="geometry" />
        </mxCell>
        <mxCell id="XqcrUaqYiDmMF5uCV5Nd-80" value="" style="rounded=0;whiteSpace=wrap;html=1;" parent="1" vertex="1">
          <mxGeometry x="420" y="660" width="120" height="60" as="geometry" />
        </mxCell>
        <mxCell id="XqcrUaqYiDmMF5uCV5Nd-83" value="否" style="text;html=1;strokeColor=none;fillColor=none;align=center;verticalAlign=middle;whiteSpace=wrap;rounded=0;" parent="1" vertex="1">
          <mxGeometry x="360" y="670" width="40" height="20" as="geometry" />
        </mxCell>
        <mxCell id="XqcrUaqYiDmMF5uCV5Nd-84" value="是" style="text;html=1;strokeColor=none;fillColor=none;align=center;verticalAlign=middle;whiteSpace=wrap;rounded=0;" parent="1" vertex="1">
          <mxGeometry x="280" y="730" width="40" height="20" as="geometry" />
        </mxCell>
        <mxCell id="XqcrUaqYiDmMF5uCV5Nd-85" value="调用SI_PAY10020提现" style="text;html=1;strokeColor=none;fillColor=none;align=center;verticalAlign=middle;whiteSpace=wrap;rounded=0;" parent="1" vertex="1">
          <mxGeometry x="425" y="680" width="110" height="30" as="geometry" />
        </mxCell>
        <mxCell id="XqcrUaqYiDmMF5uCV5Nd-86" value="&lt;br&gt;&lt;br&gt;&lt;span style=&quot;color: rgb(0 , 0 , 0) ; font-family: &amp;#34;helvetica&amp;#34; ; font-size: 12px ; font-style: normal ; font-weight: 400 ; letter-spacing: normal ; text-align: center ; text-indent: 0px ; text-transform: none ; word-spacing: 0px ; background-color: rgb(248 , 249 , 250) ; display: inline ; float: none&quot;&gt;调用SI_PAY10021消费&lt;/span&gt;&lt;br&gt;" style="text;html=1;strokeColor=none;fillColor=none;align=center;verticalAlign=middle;whiteSpace=wrap;rounded=0;" parent="1" vertex="1">
          <mxGeometry x="270" y="780" width="100" height="20" as="geometry" />
        </mxCell>
        <mxCell id="XqcrUaqYiDmMF5uCV5Nd-95" style="edgeStyle=orthogonalEdgeStyle;rounded=0;orthogonalLoop=1;jettySize=auto;html=1;exitX=0.5;exitY=1;exitDx=0;exitDy=0;" parent="1" source="XqcrUaqYiDmMF5uCV5Nd-87" target="XqcrUaqYiDmMF5uCV5Nd-91" edge="1">
          <mxGeometry relative="1" as="geometry" />
        </mxCell>
        <mxCell id="XqcrUaqYiDmMF5uCV5Nd-87" value="" style="rounded=0;whiteSpace=wrap;html=1;" parent="1" vertex="1">
          <mxGeometry x="260" y="880" width="120" height="60" as="geometry" />
        </mxCell>
        <mxCell id="XqcrUaqYiDmMF5uCV5Nd-89" value="查询电子账户，返回账户余额，在途金额等信息" style="text;html=1;strokeColor=none;fillColor=none;align=center;verticalAlign=middle;whiteSpace=wrap;rounded=0;" parent="1" vertex="1">
          <mxGeometry x="260" y="900" width="120" height="20" as="geometry" />
        </mxCell>
        <mxCell id="XqcrUaqYiDmMF5uCV5Nd-96" value="" style="edgeStyle=orthogonalEdgeStyle;rounded=0;orthogonalLoop=1;jettySize=auto;html=1;entryX=0.5;entryY=0;entryDx=0;entryDy=0;" parent="1" source="XqcrUaqYiDmMF5uCV5Nd-91" target="XqcrUaqYiDmMF5uCV5Nd-92" edge="1">
          <mxGeometry relative="1" as="geometry" />
        </mxCell>
        <mxCell id="XqcrUaqYiDmMF5uCV5Nd-91" value="" style="rounded=0;whiteSpace=wrap;html=1;" parent="1" vertex="1">
          <mxGeometry x="260" y="990" width="120" height="60" as="geometry" />
        </mxCell>
        <mxCell id="XqcrUaqYiDmMF5uCV5Nd-92" value="" style="rounded=0;whiteSpace=wrap;html=1;" parent="1" vertex="1">
          <mxGeometry x="260" y="1090" width="120" height="60" as="geometry" />
        </mxCell>
        <mxCell id="XqcrUaqYiDmMF5uCV5Nd-93" value="短信事件初始化" style="text;html=1;strokeColor=none;fillColor=none;align=center;verticalAlign=middle;whiteSpace=wrap;rounded=0;" parent="1" vertex="1">
          <mxGeometry x="270" y="1015" width="100" height="10" as="geometry" />
        </mxCell>
        <mxCell id="XqcrUaqYiDmMF5uCV5Nd-94" value="交易后处理" style="text;html=1;strokeColor=none;fillColor=none;align=center;verticalAlign=middle;whiteSpace=wrap;rounded=0;" parent="1" vertex="1">
          <mxGeometry x="280" y="1110" width="70" height="20" as="geometry" />
        </mxCell>
      </root>
    </mxGraphModel>
  </diagram>
  <diagram id="uydAdrOCAIpRzHLqBWHw" name="SI_ACC80003">
    <mxGraphModel dx="868" dy="394" grid="1" gridSize="10" guides="1" tooltips="1" connect="1" arrows="1" fold="1" page="1" pageScale="1" pageWidth="827" pageHeight="1169" math="0" shadow="0">
      <root>
        <mxCell id="pQ9_uvLMdEH-zwh8NULI-0" />
        <mxCell id="pQ9_uvLMdEH-zwh8NULI-1" parent="pQ9_uvLMdEH-zwh8NULI-0" />
        <mxCell id="pQ9_uvLMdEH-zwh8NULI-6" style="edgeStyle=orthogonalEdgeStyle;rounded=0;orthogonalLoop=1;jettySize=auto;html=1;entryX=0.5;entryY=0;entryDx=0;entryDy=0;" edge="1" parent="pQ9_uvLMdEH-zwh8NULI-1" source="pQ9_uvLMdEH-zwh8NULI-2" target="pQ9_uvLMdEH-zwh8NULI-4">
          <mxGeometry relative="1" as="geometry" />
        </mxCell>
        <mxCell id="pQ9_uvLMdEH-zwh8NULI-2" value="" style="ellipse;whiteSpace=wrap;html=1;" vertex="1" parent="pQ9_uvLMdEH-zwh8NULI-1">
          <mxGeometry x="330" y="20" width="84" height="50" as="geometry" />
        </mxCell>
        <mxCell id="pQ9_uvLMdEH-zwh8NULI-3" value="start" style="text;html=1;strokeColor=none;fillColor=none;align=center;verticalAlign=middle;whiteSpace=wrap;rounded=0;" vertex="1" parent="pQ9_uvLMdEH-zwh8NULI-1">
          <mxGeometry x="352" y="35" width="40" height="20" as="geometry" />
        </mxCell>
        <mxCell id="pQ9_uvLMdEH-zwh8NULI-9" style="edgeStyle=orthogonalEdgeStyle;rounded=0;orthogonalLoop=1;jettySize=auto;html=1;exitX=0.5;exitY=1;exitDx=0;exitDy=0;" edge="1" parent="pQ9_uvLMdEH-zwh8NULI-1" source="pQ9_uvLMdEH-zwh8NULI-4" target="pQ9_uvLMdEH-zwh8NULI-7">
          <mxGeometry relative="1" as="geometry" />
        </mxCell>
        <mxCell id="pQ9_uvLMdEH-zwh8NULI-4" value="" style="rounded=0;whiteSpace=wrap;html=1;" vertex="1" parent="pQ9_uvLMdEH-zwh8NULI-1">
          <mxGeometry x="321" y="100" width="102" height="40" as="geometry" />
        </mxCell>
        <mxCell id="pQ9_uvLMdEH-zwh8NULI-5" value="服务前处理" style="text;html=1;strokeColor=none;fillColor=none;align=center;verticalAlign=middle;whiteSpace=wrap;rounded=0;" vertex="1" parent="pQ9_uvLMdEH-zwh8NULI-1">
          <mxGeometry x="340" y="110" width="70" height="20" as="geometry" />
        </mxCell>
        <mxCell id="pQ9_uvLMdEH-zwh8NULI-12" style="edgeStyle=orthogonalEdgeStyle;rounded=0;orthogonalLoop=1;jettySize=auto;html=1;exitX=0.5;exitY=1;exitDx=0;exitDy=0;entryX=0.5;entryY=0;entryDx=0;entryDy=0;" edge="1" parent="pQ9_uvLMdEH-zwh8NULI-1" source="pQ9_uvLMdEH-zwh8NULI-7" target="pQ9_uvLMdEH-zwh8NULI-10">
          <mxGeometry relative="1" as="geometry" />
        </mxCell>
        <mxCell id="pQ9_uvLMdEH-zwh8NULI-13" style="edgeStyle=orthogonalEdgeStyle;rounded=0;orthogonalLoop=1;jettySize=auto;html=1;exitX=1;exitY=0.5;exitDx=0;exitDy=0;entryX=0;entryY=0.5;entryDx=0;entryDy=0;" edge="1" parent="pQ9_uvLMdEH-zwh8NULI-1" source="pQ9_uvLMdEH-zwh8NULI-7" target="pQ9_uvLMdEH-zwh8NULI-11">
          <mxGeometry relative="1" as="geometry" />
        </mxCell>
        <mxCell id="pQ9_uvLMdEH-zwh8NULI-7" value="" style="rhombus;whiteSpace=wrap;html=1;" vertex="1" parent="pQ9_uvLMdEH-zwh8NULI-1">
          <mxGeometry x="332" y="180" width="80" height="80" as="geometry" />
        </mxCell>
        <mxCell id="pQ9_uvLMdEH-zwh8NULI-8" value="冻结类型为0" style="text;html=1;strokeColor=none;fillColor=none;align=center;verticalAlign=middle;whiteSpace=wrap;rounded=0;" vertex="1" parent="pQ9_uvLMdEH-zwh8NULI-1">
          <mxGeometry x="352" y="210" width="40" height="20" as="geometry" />
        </mxCell>
        <mxCell id="pQ9_uvLMdEH-zwh8NULI-20" style="edgeStyle=orthogonalEdgeStyle;rounded=0;orthogonalLoop=1;jettySize=auto;html=1;entryX=0.5;entryY=0;entryDx=0;entryDy=0;" edge="1" parent="pQ9_uvLMdEH-zwh8NULI-1" source="pQ9_uvLMdEH-zwh8NULI-10" target="pQ9_uvLMdEH-zwh8NULI-18">
          <mxGeometry relative="1" as="geometry" />
        </mxCell>
        <mxCell id="pQ9_uvLMdEH-zwh8NULI-10" value="" style="rounded=0;whiteSpace=wrap;html=1;" vertex="1" parent="pQ9_uvLMdEH-zwh8NULI-1">
          <mxGeometry x="326" y="310" width="92" height="50" as="geometry" />
        </mxCell>
        <mxCell id="pQ9_uvLMdEH-zwh8NULI-21" style="edgeStyle=orthogonalEdgeStyle;rounded=0;orthogonalLoop=1;jettySize=auto;html=1;exitX=0.5;exitY=1;exitDx=0;exitDy=0;entryX=1;entryY=0.5;entryDx=0;entryDy=0;" edge="1" parent="pQ9_uvLMdEH-zwh8NULI-1" source="pQ9_uvLMdEH-zwh8NULI-11" target="pQ9_uvLMdEH-zwh8NULI-18">
          <mxGeometry relative="1" as="geometry" />
        </mxCell>
        <mxCell id="pQ9_uvLMdEH-zwh8NULI-11" value="" style="rounded=0;whiteSpace=wrap;html=1;" vertex="1" parent="pQ9_uvLMdEH-zwh8NULI-1">
          <mxGeometry x="460" y="195" width="92" height="50" as="geometry" />
        </mxCell>
        <mxCell id="pQ9_uvLMdEH-zwh8NULI-14" value="是" style="text;html=1;strokeColor=none;fillColor=none;align=center;verticalAlign=middle;whiteSpace=wrap;rounded=0;" vertex="1" parent="pQ9_uvLMdEH-zwh8NULI-1">
          <mxGeometry x="321" y="270" width="40" height="20" as="geometry" />
        </mxCell>
        <mxCell id="pQ9_uvLMdEH-zwh8NULI-15" value="否" style="text;html=1;strokeColor=none;fillColor=none;align=center;verticalAlign=middle;whiteSpace=wrap;rounded=0;" vertex="1" parent="pQ9_uvLMdEH-zwh8NULI-1">
          <mxGeometry x="410" y="195" width="40" height="20" as="geometry" />
        </mxCell>
        <mxCell id="pQ9_uvLMdEH-zwh8NULI-16" value="冻结" style="text;html=1;strokeColor=none;fillColor=none;align=center;verticalAlign=middle;whiteSpace=wrap;rounded=0;" vertex="1" parent="pQ9_uvLMdEH-zwh8NULI-1">
          <mxGeometry x="352" y="325" width="40" height="20" as="geometry" />
        </mxCell>
        <mxCell id="pQ9_uvLMdEH-zwh8NULI-17" value="解冻" style="text;html=1;strokeColor=none;fillColor=none;align=center;verticalAlign=middle;whiteSpace=wrap;rounded=0;" vertex="1" parent="pQ9_uvLMdEH-zwh8NULI-1">
          <mxGeometry x="486" y="210" width="40" height="20" as="geometry" />
        </mxCell>
        <mxCell id="pQ9_uvLMdEH-zwh8NULI-25" style="edgeStyle=orthogonalEdgeStyle;rounded=0;orthogonalLoop=1;jettySize=auto;html=1;entryX=0.5;entryY=0;entryDx=0;entryDy=0;" edge="1" parent="pQ9_uvLMdEH-zwh8NULI-1" source="pQ9_uvLMdEH-zwh8NULI-18" target="pQ9_uvLMdEH-zwh8NULI-22">
          <mxGeometry relative="1" as="geometry" />
        </mxCell>
        <mxCell id="pQ9_uvLMdEH-zwh8NULI-18" value="" style="rounded=0;whiteSpace=wrap;html=1;" vertex="1" parent="pQ9_uvLMdEH-zwh8NULI-1">
          <mxGeometry x="321" y="410" width="102" height="50" as="geometry" />
        </mxCell>
        <mxCell id="pQ9_uvLMdEH-zwh8NULI-19" value="服务后处理" style="text;html=1;strokeColor=none;fillColor=none;align=center;verticalAlign=middle;whiteSpace=wrap;rounded=0;" vertex="1" parent="pQ9_uvLMdEH-zwh8NULI-1">
          <mxGeometry x="337" y="425" width="70" height="20" as="geometry" />
        </mxCell>
        <mxCell id="pQ9_uvLMdEH-zwh8NULI-22" value="" style="ellipse;whiteSpace=wrap;html=1;" vertex="1" parent="pQ9_uvLMdEH-zwh8NULI-1">
          <mxGeometry x="330" y="500" width="84" height="50" as="geometry" />
        </mxCell>
        <mxCell id="pQ9_uvLMdEH-zwh8NULI-23" value="end" style="text;html=1;strokeColor=none;fillColor=none;align=center;verticalAlign=middle;whiteSpace=wrap;rounded=0;" vertex="1" parent="pQ9_uvLMdEH-zwh8NULI-1">
          <mxGeometry x="352" y="515" width="40" height="20" as="geometry" />
        </mxCell>
      </root>
    </mxGraphModel>
  </diagram>
  <diagram id="6TRTj_d5HPUeVjv0wu4c" name="SI_ACC80004">
    <mxGraphModel dx="868" dy="450" grid="1" gridSize="10" guides="1" tooltips="1" connect="1" arrows="1" fold="1" page="1" pageScale="1" pageWidth="827" pageHeight="1169" math="0" shadow="0">
      <root>
        <mxCell id="GQi_tKyjhnCD5pNJpm1--0" />
        <mxCell id="GQi_tKyjhnCD5pNJpm1--1" parent="GQi_tKyjhnCD5pNJpm1--0" />
        <mxCell id="SzGrBbd-RtnZoRWZEI4l-0" style="edgeStyle=orthogonalEdgeStyle;rounded=0;orthogonalLoop=1;jettySize=auto;html=1;entryX=0.5;entryY=0;entryDx=0;entryDy=0;" parent="GQi_tKyjhnCD5pNJpm1--1" source="SzGrBbd-RtnZoRWZEI4l-1" target="SzGrBbd-RtnZoRWZEI4l-4" edge="1">
          <mxGeometry relative="1" as="geometry" />
        </mxCell>
        <mxCell id="SzGrBbd-RtnZoRWZEI4l-1" value="" style="ellipse;whiteSpace=wrap;html=1;" parent="GQi_tKyjhnCD5pNJpm1--1" vertex="1">
          <mxGeometry x="330" y="20" width="84" height="50" as="geometry" />
        </mxCell>
        <mxCell id="SzGrBbd-RtnZoRWZEI4l-2" value="start" style="text;html=1;strokeColor=none;fillColor=none;align=center;verticalAlign=middle;whiteSpace=wrap;rounded=0;" parent="GQi_tKyjhnCD5pNJpm1--1" vertex="1">
          <mxGeometry x="352" y="35" width="40" height="20" as="geometry" />
        </mxCell>
        <mxCell id="SzGrBbd-RtnZoRWZEI4l-3" style="edgeStyle=orthogonalEdgeStyle;rounded=0;orthogonalLoop=1;jettySize=auto;html=1;exitX=0.5;exitY=1;exitDx=0;exitDy=0;" parent="GQi_tKyjhnCD5pNJpm1--1" source="SzGrBbd-RtnZoRWZEI4l-4" edge="1">
          <mxGeometry relative="1" as="geometry">
            <mxPoint x="372" y="180" as="targetPoint" />
          </mxGeometry>
        </mxCell>
        <mxCell id="SzGrBbd-RtnZoRWZEI4l-4" value="" style="rounded=0;whiteSpace=wrap;html=1;" parent="GQi_tKyjhnCD5pNJpm1--1" vertex="1">
          <mxGeometry x="321" y="100" width="102" height="40" as="geometry" />
        </mxCell>
        <mxCell id="SzGrBbd-RtnZoRWZEI4l-5" value="服务前处理" style="text;html=1;strokeColor=none;fillColor=none;align=center;verticalAlign=middle;whiteSpace=wrap;rounded=0;" parent="GQi_tKyjhnCD5pNJpm1--1" vertex="1">
          <mxGeometry x="340" y="110" width="70" height="20" as="geometry" />
        </mxCell>
        <mxCell id="SzGrBbd-RtnZoRWZEI4l-18" style="edgeStyle=orthogonalEdgeStyle;rounded=0;orthogonalLoop=1;jettySize=auto;html=1;entryX=0.5;entryY=0;entryDx=0;entryDy=0;" parent="GQi_tKyjhnCD5pNJpm1--1" source="SzGrBbd-RtnZoRWZEI4l-19" target="SzGrBbd-RtnZoRWZEI4l-21" edge="1">
          <mxGeometry relative="1" as="geometry" />
        </mxCell>
        <mxCell id="SzGrBbd-RtnZoRWZEI4l-19" value="" style="rounded=0;whiteSpace=wrap;html=1;" parent="GQi_tKyjhnCD5pNJpm1--1" vertex="1">
          <mxGeometry x="320" y="550" width="102" height="50" as="geometry" />
        </mxCell>
        <mxCell id="SzGrBbd-RtnZoRWZEI4l-21" value="" style="ellipse;whiteSpace=wrap;html=1;" parent="GQi_tKyjhnCD5pNJpm1--1" vertex="1">
          <mxGeometry x="329" y="640" width="84" height="50" as="geometry" />
        </mxCell>
        <mxCell id="SzGrBbd-RtnZoRWZEI4l-22" value="end" style="text;html=1;strokeColor=none;fillColor=none;align=center;verticalAlign=middle;whiteSpace=wrap;rounded=0;" parent="GQi_tKyjhnCD5pNJpm1--1" vertex="1">
          <mxGeometry x="350" y="655" width="40" height="20" as="geometry" />
        </mxCell>
        <mxCell id="SzGrBbd-RtnZoRWZEI4l-26" style="edgeStyle=orthogonalEdgeStyle;rounded=0;orthogonalLoop=1;jettySize=auto;html=1;exitX=0.5;exitY=1;exitDx=0;exitDy=0;entryX=0.5;entryY=0;entryDx=0;entryDy=0;" parent="GQi_tKyjhnCD5pNJpm1--1" source="SzGrBbd-RtnZoRWZEI4l-23" target="SzGrBbd-RtnZoRWZEI4l-25" edge="1">
          <mxGeometry relative="1" as="geometry" />
        </mxCell>
        <mxCell id="SzGrBbd-RtnZoRWZEI4l-23" value="" style="rounded=0;whiteSpace=wrap;html=1;" parent="GQi_tKyjhnCD5pNJpm1--1" vertex="1">
          <mxGeometry x="310" y="180" width="122" height="50" as="geometry" />
        </mxCell>
        <mxCell id="SzGrBbd-RtnZoRWZEI4l-24" value="电子账户信息查询" style="text;html=1;strokeColor=none;fillColor=none;align=center;verticalAlign=middle;whiteSpace=wrap;rounded=0;" parent="GQi_tKyjhnCD5pNJpm1--1" vertex="1">
          <mxGeometry x="325" y="197.5" width="100" height="15" as="geometry" />
        </mxCell>
        <mxCell id="SzGrBbd-RtnZoRWZEI4l-30" style="edgeStyle=orthogonalEdgeStyle;rounded=0;orthogonalLoop=1;jettySize=auto;html=1;exitX=0.5;exitY=1;exitDx=0;exitDy=0;entryX=0.5;entryY=0;entryDx=0;entryDy=0;" parent="GQi_tKyjhnCD5pNJpm1--1" source="SzGrBbd-RtnZoRWZEI4l-25" target="SzGrBbd-RtnZoRWZEI4l-28" edge="1">
          <mxGeometry relative="1" as="geometry" />
        </mxCell>
        <mxCell id="SzGrBbd-RtnZoRWZEI4l-25" value="" style="rounded=0;whiteSpace=wrap;html=1;" parent="GQi_tKyjhnCD5pNJpm1--1" vertex="1">
          <mxGeometry x="311" y="270" width="120" height="50" as="geometry" />
        </mxCell>
        <mxCell id="SzGrBbd-RtnZoRWZEI4l-27" value="解冻" style="text;html=1;strokeColor=none;fillColor=none;align=center;verticalAlign=middle;whiteSpace=wrap;rounded=0;" parent="GQi_tKyjhnCD5pNJpm1--1" vertex="1">
          <mxGeometry x="350" y="285" width="40" height="20" as="geometry" />
        </mxCell>
        <mxCell id="SzGrBbd-RtnZoRWZEI4l-33" style="edgeStyle=orthogonalEdgeStyle;rounded=0;orthogonalLoop=1;jettySize=auto;html=1;entryX=0.5;entryY=0;entryDx=0;entryDy=0;" parent="GQi_tKyjhnCD5pNJpm1--1" source="SzGrBbd-RtnZoRWZEI4l-28" target="SzGrBbd-RtnZoRWZEI4l-31" edge="1">
          <mxGeometry relative="1" as="geometry" />
        </mxCell>
        <mxCell id="SzGrBbd-RtnZoRWZEI4l-28" value="" style="rounded=0;whiteSpace=wrap;html=1;" parent="GQi_tKyjhnCD5pNJpm1--1" vertex="1">
          <mxGeometry x="311" y="360" width="120" height="50" as="geometry" />
        </mxCell>
        <mxCell id="SzGrBbd-RtnZoRWZEI4l-29" value="调接口SI_PAY80007扣款记账" style="text;html=1;strokeColor=none;fillColor=none;align=center;verticalAlign=middle;whiteSpace=wrap;rounded=0;" parent="GQi_tKyjhnCD5pNJpm1--1" vertex="1">
          <mxGeometry x="330" y="375" width="80" height="15" as="geometry" />
        </mxCell>
        <mxCell id="SzGrBbd-RtnZoRWZEI4l-34" style="edgeStyle=orthogonalEdgeStyle;rounded=0;orthogonalLoop=1;jettySize=auto;html=1;exitX=0.5;exitY=1;exitDx=0;exitDy=0;entryX=0.5;entryY=0;entryDx=0;entryDy=0;" parent="GQi_tKyjhnCD5pNJpm1--1" source="SzGrBbd-RtnZoRWZEI4l-31" target="SzGrBbd-RtnZoRWZEI4l-19" edge="1">
          <mxGeometry relative="1" as="geometry" />
        </mxCell>
        <mxCell id="SzGrBbd-RtnZoRWZEI4l-31" value="" style="rounded=0;whiteSpace=wrap;html=1;" parent="GQi_tKyjhnCD5pNJpm1--1" vertex="1">
          <mxGeometry x="311" y="450" width="120" height="60" as="geometry" />
        </mxCell>
        <mxCell id="SzGrBbd-RtnZoRWZEI4l-32" value="获取电子账户可用余额，在途金额" style="text;html=1;strokeColor=none;fillColor=none;align=center;verticalAlign=middle;whiteSpace=wrap;rounded=0;" parent="GQi_tKyjhnCD5pNJpm1--1" vertex="1">
          <mxGeometry x="325" y="465" width="100" height="30" as="geometry" />
        </mxCell>
        <mxCell id="SzGrBbd-RtnZoRWZEI4l-35" value="服务后处理" style="text;html=1;strokeColor=none;fillColor=none;align=center;verticalAlign=middle;whiteSpace=wrap;rounded=0;" parent="GQi_tKyjhnCD5pNJpm1--1" vertex="1">
          <mxGeometry x="336" y="567.5" width="70" height="15" as="geometry" />
        </mxCell>
      </root>
    </mxGraphModel>
  </diagram>
  <diagram id="hBNhsq14VOSi3ioyk74m" name="SI_ACC80006">
    <mxGraphModel dx="1736" dy="900" grid="1" gridSize="10" guides="1" tooltips="1" connect="1" arrows="1" fold="1" page="1" pageScale="1" pageWidth="827" pageHeight="1169" math="0" shadow="0">
      <root>
        <mxCell id="T1rtG8w2dek3nrQxu8-y-0" />
        <mxCell id="T1rtG8w2dek3nrQxu8-y-1" parent="T1rtG8w2dek3nrQxu8-y-0" />
        <mxCell id="5Y2tAG-TIhGtTChpsRGf-0" style="edgeStyle=orthogonalEdgeStyle;rounded=0;orthogonalLoop=1;jettySize=auto;html=1;entryX=0.5;entryY=0;entryDx=0;entryDy=0;" edge="1" parent="T1rtG8w2dek3nrQxu8-y-1" source="5Y2tAG-TIhGtTChpsRGf-1" target="5Y2tAG-TIhGtTChpsRGf-4">
          <mxGeometry relative="1" as="geometry" />
        </mxCell>
        <mxCell id="5Y2tAG-TIhGtTChpsRGf-1" value="" style="ellipse;whiteSpace=wrap;html=1;" vertex="1" parent="T1rtG8w2dek3nrQxu8-y-1">
          <mxGeometry x="330" y="20" width="84" height="50" as="geometry" />
        </mxCell>
        <mxCell id="5Y2tAG-TIhGtTChpsRGf-2" value="start" style="text;html=1;strokeColor=none;fillColor=none;align=center;verticalAlign=middle;whiteSpace=wrap;rounded=0;" vertex="1" parent="T1rtG8w2dek3nrQxu8-y-1">
          <mxGeometry x="352" y="35" width="40" height="20" as="geometry" />
        </mxCell>
        <mxCell id="5Y2tAG-TIhGtTChpsRGf-3" style="edgeStyle=orthogonalEdgeStyle;rounded=0;orthogonalLoop=1;jettySize=auto;html=1;exitX=0.5;exitY=1;exitDx=0;exitDy=0;" edge="1" parent="T1rtG8w2dek3nrQxu8-y-1" source="5Y2tAG-TIhGtTChpsRGf-4">
          <mxGeometry relative="1" as="geometry">
            <mxPoint x="372" y="180" as="targetPoint" />
          </mxGeometry>
        </mxCell>
        <mxCell id="5Y2tAG-TIhGtTChpsRGf-4" value="" style="rounded=0;whiteSpace=wrap;html=1;" vertex="1" parent="T1rtG8w2dek3nrQxu8-y-1">
          <mxGeometry x="321" y="100" width="102" height="40" as="geometry" />
        </mxCell>
        <mxCell id="5Y2tAG-TIhGtTChpsRGf-5" value="服务前处理" style="text;html=1;strokeColor=none;fillColor=none;align=center;verticalAlign=middle;whiteSpace=wrap;rounded=0;" vertex="1" parent="T1rtG8w2dek3nrQxu8-y-1">
          <mxGeometry x="340" y="110" width="70" height="20" as="geometry" />
        </mxCell>
        <mxCell id="5Y2tAG-TIhGtTChpsRGf-6" style="edgeStyle=orthogonalEdgeStyle;rounded=0;orthogonalLoop=1;jettySize=auto;html=1;entryX=0.5;entryY=0;entryDx=0;entryDy=0;" edge="1" parent="T1rtG8w2dek3nrQxu8-y-1" source="5Y2tAG-TIhGtTChpsRGf-7" target="5Y2tAG-TIhGtTChpsRGf-8">
          <mxGeometry relative="1" as="geometry" />
        </mxCell>
        <mxCell id="5Y2tAG-TIhGtTChpsRGf-7" value="" style="rounded=0;whiteSpace=wrap;html=1;" vertex="1" parent="T1rtG8w2dek3nrQxu8-y-1">
          <mxGeometry x="320" y="680" width="102" height="50" as="geometry" />
        </mxCell>
        <mxCell id="5Y2tAG-TIhGtTChpsRGf-8" value="" style="ellipse;whiteSpace=wrap;html=1;" vertex="1" parent="T1rtG8w2dek3nrQxu8-y-1">
          <mxGeometry x="329" y="770" width="84" height="50" as="geometry" />
        </mxCell>
        <mxCell id="5Y2tAG-TIhGtTChpsRGf-9" value="end" style="text;html=1;strokeColor=none;fillColor=none;align=center;verticalAlign=middle;whiteSpace=wrap;rounded=0;" vertex="1" parent="T1rtG8w2dek3nrQxu8-y-1">
          <mxGeometry x="350" y="785" width="40" height="20" as="geometry" />
        </mxCell>
        <mxCell id="5Y2tAG-TIhGtTChpsRGf-10" style="edgeStyle=orthogonalEdgeStyle;rounded=0;orthogonalLoop=1;jettySize=auto;html=1;exitX=0.5;exitY=1;exitDx=0;exitDy=0;entryX=0.5;entryY=0;entryDx=0;entryDy=0;" edge="1" parent="T1rtG8w2dek3nrQxu8-y-1" source="5Y2tAG-TIhGtTChpsRGf-11" target="5Y2tAG-TIhGtTChpsRGf-14">
          <mxGeometry relative="1" as="geometry" />
        </mxCell>
        <mxCell id="5Y2tAG-TIhGtTChpsRGf-11" value="" style="rounded=0;whiteSpace=wrap;html=1;" vertex="1" parent="T1rtG8w2dek3nrQxu8-y-1">
          <mxGeometry x="310" y="180" width="122" height="50" as="geometry" />
        </mxCell>
        <mxCell id="5Y2tAG-TIhGtTChpsRGf-12" value="电子账户信息查询" style="text;html=1;strokeColor=none;fillColor=none;align=center;verticalAlign=middle;whiteSpace=wrap;rounded=0;" vertex="1" parent="T1rtG8w2dek3nrQxu8-y-1">
          <mxGeometry x="325" y="197.5" width="100" height="15" as="geometry" />
        </mxCell>
        <mxCell id="5Y2tAG-TIhGtTChpsRGf-13" style="edgeStyle=orthogonalEdgeStyle;rounded=0;orthogonalLoop=1;jettySize=auto;html=1;exitX=0.5;exitY=1;exitDx=0;exitDy=0;entryX=0.5;entryY=0;entryDx=0;entryDy=0;" edge="1" parent="T1rtG8w2dek3nrQxu8-y-1" source="5Y2tAG-TIhGtTChpsRGf-14" target="5Y2tAG-TIhGtTChpsRGf-17">
          <mxGeometry relative="1" as="geometry" />
        </mxCell>
        <mxCell id="5Y2tAG-TIhGtTChpsRGf-14" value="" style="rounded=0;whiteSpace=wrap;html=1;" vertex="1" parent="T1rtG8w2dek3nrQxu8-y-1">
          <mxGeometry x="311" y="270" width="120" height="50" as="geometry" />
        </mxCell>
        <mxCell id="5Y2tAG-TIhGtTChpsRGf-15" value="交易权限检查" style="text;html=1;strokeColor=none;fillColor=none;align=center;verticalAlign=middle;whiteSpace=wrap;rounded=0;" vertex="1" parent="T1rtG8w2dek3nrQxu8-y-1">
          <mxGeometry x="332" y="287.5" width="80" height="15" as="geometry" />
        </mxCell>
        <mxCell id="5Y2tAG-TIhGtTChpsRGf-16" style="edgeStyle=orthogonalEdgeStyle;rounded=0;orthogonalLoop=1;jettySize=auto;html=1;entryX=0.5;entryY=0;entryDx=0;entryDy=0;" edge="1" parent="T1rtG8w2dek3nrQxu8-y-1" source="5Y2tAG-TIhGtTChpsRGf-17" target="5Y2tAG-TIhGtTChpsRGf-20">
          <mxGeometry relative="1" as="geometry" />
        </mxCell>
        <mxCell id="5Y2tAG-TIhGtTChpsRGf-17" value="" style="rounded=0;whiteSpace=wrap;html=1;" vertex="1" parent="T1rtG8w2dek3nrQxu8-y-1">
          <mxGeometry x="311" y="360" width="120" height="50" as="geometry" />
        </mxCell>
        <mxCell id="5Y2tAG-TIhGtTChpsRGf-18" value="调接口SI_PAY10023转入" style="text;html=1;strokeColor=none;fillColor=none;align=center;verticalAlign=middle;whiteSpace=wrap;rounded=0;" vertex="1" parent="T1rtG8w2dek3nrQxu8-y-1">
          <mxGeometry x="322" y="377.5" width="100" height="15" as="geometry" />
        </mxCell>
        <mxCell id="5Y2tAG-TIhGtTChpsRGf-26" style="edgeStyle=orthogonalEdgeStyle;rounded=0;orthogonalLoop=1;jettySize=auto;html=1;" edge="1" parent="T1rtG8w2dek3nrQxu8-y-1" source="5Y2tAG-TIhGtTChpsRGf-20" target="5Y2tAG-TIhGtTChpsRGf-23">
          <mxGeometry relative="1" as="geometry" />
        </mxCell>
        <mxCell id="5Y2tAG-TIhGtTChpsRGf-20" value="" style="rounded=0;whiteSpace=wrap;html=1;" vertex="1" parent="T1rtG8w2dek3nrQxu8-y-1">
          <mxGeometry x="311" y="450" width="120" height="60" as="geometry" />
        </mxCell>
        <mxCell id="5Y2tAG-TIhGtTChpsRGf-21" value="获取电子账户可用余额，在途金额" style="text;html=1;strokeColor=none;fillColor=none;align=center;verticalAlign=middle;whiteSpace=wrap;rounded=0;" vertex="1" parent="T1rtG8w2dek3nrQxu8-y-1">
          <mxGeometry x="325" y="465" width="100" height="30" as="geometry" />
        </mxCell>
        <mxCell id="5Y2tAG-TIhGtTChpsRGf-22" value="服务后处理" style="text;html=1;strokeColor=none;fillColor=none;align=center;verticalAlign=middle;whiteSpace=wrap;rounded=0;" vertex="1" parent="T1rtG8w2dek3nrQxu8-y-1">
          <mxGeometry x="336" y="697.5" width="70" height="15" as="geometry" />
        </mxCell>
        <mxCell id="5Y2tAG-TIhGtTChpsRGf-28" style="edgeStyle=orthogonalEdgeStyle;rounded=0;orthogonalLoop=1;jettySize=auto;html=1;entryX=0.494;entryY=-0.061;entryDx=0;entryDy=0;entryPerimeter=0;" edge="1" parent="T1rtG8w2dek3nrQxu8-y-1" source="5Y2tAG-TIhGtTChpsRGf-23" target="5Y2tAG-TIhGtTChpsRGf-7">
          <mxGeometry relative="1" as="geometry" />
        </mxCell>
        <mxCell id="5Y2tAG-TIhGtTChpsRGf-23" value="" style="rounded=0;whiteSpace=wrap;html=1;" vertex="1" parent="T1rtG8w2dek3nrQxu8-y-1">
          <mxGeometry x="311" y="560" width="120" height="60" as="geometry" />
        </mxCell>
        <mxCell id="5Y2tAG-TIhGtTChpsRGf-25" value="短信事件初始化" style="text;html=1;strokeColor=none;fillColor=none;align=center;verticalAlign=middle;whiteSpace=wrap;rounded=0;" vertex="1" parent="T1rtG8w2dek3nrQxu8-y-1">
          <mxGeometry x="325" y="580" width="90" height="20" as="geometry" />
        </mxCell>
      </root>
    </mxGraphModel>
  </diagram>
  <diagram id="2kOeMtesraPCxRWLHZHE" name="SI_PAY10023">
    <mxGraphModel dx="868" dy="450" grid="1" gridSize="10" guides="1" tooltips="1" connect="1" arrows="1" fold="1" page="1" pageScale="1" pageWidth="827" pageHeight="1169" math="0" shadow="0">
      <root>
        <mxCell id="Flz4YsGiCt0gHb-Z4mdQ-0" />
        <mxCell id="Flz4YsGiCt0gHb-Z4mdQ-1" parent="Flz4YsGiCt0gHb-Z4mdQ-0" />
        <mxCell id="Flz4YsGiCt0gHb-Z4mdQ-2" style="edgeStyle=orthogonalEdgeStyle;rounded=0;orthogonalLoop=1;jettySize=auto;html=1;exitX=0.5;exitY=1;exitDx=0;exitDy=0;entryX=0.5;entryY=0;entryDx=0;entryDy=0;" edge="1" parent="Flz4YsGiCt0gHb-Z4mdQ-1" source="Flz4YsGiCt0gHb-Z4mdQ-3">
          <mxGeometry relative="1" as="geometry">
            <mxPoint x="345" y="130" as="targetPoint" />
          </mxGeometry>
        </mxCell>
        <mxCell id="Flz4YsGiCt0gHb-Z4mdQ-3" value="" style="ellipse;whiteSpace=wrap;html=1;" vertex="1" parent="Flz4YsGiCt0gHb-Z4mdQ-1">
          <mxGeometry x="300" y="40" width="90" height="50" as="geometry" />
        </mxCell>
        <mxCell id="Flz4YsGiCt0gHb-Z4mdQ-4" value="start" style="text;html=1;strokeColor=none;fillColor=none;align=center;verticalAlign=middle;whiteSpace=wrap;rounded=0;" vertex="1" parent="Flz4YsGiCt0gHb-Z4mdQ-1">
          <mxGeometry x="325" y="55" width="40" height="20" as="geometry" />
        </mxCell>
        <mxCell id="Flz4YsGiCt0gHb-Z4mdQ-9" style="edgeStyle=orthogonalEdgeStyle;rounded=0;orthogonalLoop=1;jettySize=auto;html=1;exitX=0.5;exitY=1;exitDx=0;exitDy=0;" edge="1" parent="Flz4YsGiCt0gHb-Z4mdQ-1" source="Flz4YsGiCt0gHb-Z4mdQ-10">
          <mxGeometry relative="1" as="geometry">
            <mxPoint x="345" y="240" as="targetPoint" />
          </mxGeometry>
        </mxCell>
        <mxCell id="Flz4YsGiCt0gHb-Z4mdQ-10" value="" style="rounded=0;whiteSpace=wrap;html=1;" vertex="1" parent="Flz4YsGiCt0gHb-Z4mdQ-1">
          <mxGeometry x="285" y="130" width="120" height="60" as="geometry" />
        </mxCell>
        <mxCell id="Flz4YsGiCt0gHb-Z4mdQ-13" value="" style="rounded=0;whiteSpace=wrap;html=1;" vertex="1" parent="Flz4YsGiCt0gHb-Z4mdQ-1">
          <mxGeometry x="440" y="140" width="120" height="60" as="geometry" />
        </mxCell>
        <mxCell id="Flz4YsGiCt0gHb-Z4mdQ-33" value="" style="edgeStyle=orthogonalEdgeStyle;rounded=0;orthogonalLoop=1;jettySize=auto;html=1;" edge="1" parent="Flz4YsGiCt0gHb-Z4mdQ-1" source="Flz4YsGiCt0gHb-Z4mdQ-14">
          <mxGeometry relative="1" as="geometry">
            <mxPoint x="310" y="160" as="targetPoint" />
          </mxGeometry>
        </mxCell>
        <mxCell id="Flz4YsGiCt0gHb-Z4mdQ-15" value="限额检查" style="text;html=1;strokeColor=none;fillColor=none;align=center;verticalAlign=middle;whiteSpace=wrap;rounded=0;" vertex="1" parent="Flz4YsGiCt0gHb-Z4mdQ-1">
          <mxGeometry x="470" y="160" width="60" height="20" as="geometry" />
        </mxCell>
        <mxCell id="Flz4YsGiCt0gHb-Z4mdQ-16" value="记账引擎规则适配" style="text;html=1;strokeColor=none;fillColor=none;align=center;verticalAlign=middle;whiteSpace=wrap;rounded=0;" vertex="1" parent="Flz4YsGiCt0gHb-Z4mdQ-1">
          <mxGeometry x="290" y="150" width="110" height="20" as="geometry" />
        </mxCell>
        <mxCell id="Flz4YsGiCt0gHb-Z4mdQ-17" style="edgeStyle=orthogonalEdgeStyle;rounded=0;orthogonalLoop=1;jettySize=auto;html=1;exitX=0.5;exitY=1;exitDx=0;exitDy=0;entryX=0.5;entryY=0;entryDx=0;entryDy=0;" edge="1" parent="Flz4YsGiCt0gHb-Z4mdQ-1" source="Flz4YsGiCt0gHb-Z4mdQ-18" target="Flz4YsGiCt0gHb-Z4mdQ-21">
          <mxGeometry relative="1" as="geometry" />
        </mxCell>
        <mxCell id="Flz4YsGiCt0gHb-Z4mdQ-18" value="" style="rounded=0;whiteSpace=wrap;html=1;" vertex="1" parent="Flz4YsGiCt0gHb-Z4mdQ-1">
          <mxGeometry x="285" y="340" width="120" height="60" as="geometry" />
        </mxCell>
        <mxCell id="Flz4YsGiCt0gHb-Z4mdQ-19" value="虚拟银行记账" style="text;html=1;strokeColor=none;fillColor=none;align=center;verticalAlign=middle;whiteSpace=wrap;rounded=0;" vertex="1" parent="Flz4YsGiCt0gHb-Z4mdQ-1">
          <mxGeometry x="305" y="360" width="80" height="20" as="geometry" />
        </mxCell>
        <mxCell id="Flz4YsGiCt0gHb-Z4mdQ-20" style="edgeStyle=orthogonalEdgeStyle;rounded=0;orthogonalLoop=1;jettySize=auto;html=1;exitX=0.5;exitY=1;exitDx=0;exitDy=0;entryX=0.5;entryY=0;entryDx=0;entryDy=0;" edge="1" parent="Flz4YsGiCt0gHb-Z4mdQ-1" source="Flz4YsGiCt0gHb-Z4mdQ-21" target="Flz4YsGiCt0gHb-Z4mdQ-24">
          <mxGeometry relative="1" as="geometry" />
        </mxCell>
        <mxCell id="Flz4YsGiCt0gHb-Z4mdQ-21" value="" style="rounded=0;whiteSpace=wrap;html=1;" vertex="1" parent="Flz4YsGiCt0gHb-Z4mdQ-1">
          <mxGeometry x="285" y="460" width="120" height="60" as="geometry" />
        </mxCell>
        <mxCell id="Flz4YsGiCt0gHb-Z4mdQ-22" value="电子账户明细登记" style="text;html=1;strokeColor=none;fillColor=none;align=center;verticalAlign=middle;whiteSpace=wrap;rounded=0;" vertex="1" parent="Flz4YsGiCt0gHb-Z4mdQ-1">
          <mxGeometry x="295" y="480" width="100" height="20" as="geometry" />
        </mxCell>
        <mxCell id="Flz4YsGiCt0gHb-Z4mdQ-23" style="edgeStyle=orthogonalEdgeStyle;rounded=0;orthogonalLoop=1;jettySize=auto;html=1;entryX=0.5;entryY=0;entryDx=0;entryDy=0;" edge="1" parent="Flz4YsGiCt0gHb-Z4mdQ-1" source="Flz4YsGiCt0gHb-Z4mdQ-24" target="Flz4YsGiCt0gHb-Z4mdQ-28">
          <mxGeometry relative="1" as="geometry" />
        </mxCell>
        <mxCell id="Flz4YsGiCt0gHb-Z4mdQ-24" value="" style="rounded=0;whiteSpace=wrap;html=1;" vertex="1" parent="Flz4YsGiCt0gHb-Z4mdQ-1">
          <mxGeometry x="285" y="555" width="120" height="60" as="geometry" />
        </mxCell>
        <mxCell id="Flz4YsGiCt0gHb-Z4mdQ-25" value="交易状态，通道状态更新" style="text;html=1;strokeColor=none;fillColor=none;align=center;verticalAlign=middle;whiteSpace=wrap;rounded=0;" vertex="1" parent="Flz4YsGiCt0gHb-Z4mdQ-1">
          <mxGeometry x="300" y="577.5" width="80" height="12.5" as="geometry" />
        </mxCell>
        <mxCell id="Flz4YsGiCt0gHb-Z4mdQ-26" style="edgeStyle=orthogonalEdgeStyle;rounded=0;orthogonalLoop=1;jettySize=auto;html=1;exitX=0.5;exitY=1;exitDx=0;exitDy=0;" edge="1" parent="Flz4YsGiCt0gHb-Z4mdQ-1" source="Flz4YsGiCt0gHb-Z4mdQ-25" target="Flz4YsGiCt0gHb-Z4mdQ-25">
          <mxGeometry relative="1" as="geometry" />
        </mxCell>
        <mxCell id="Flz4YsGiCt0gHb-Z4mdQ-27" style="edgeStyle=orthogonalEdgeStyle;rounded=0;orthogonalLoop=1;jettySize=auto;html=1;exitX=0.5;exitY=1;exitDx=0;exitDy=0;entryX=0.5;entryY=0;entryDx=0;entryDy=0;" edge="1" parent="Flz4YsGiCt0gHb-Z4mdQ-1" source="Flz4YsGiCt0gHb-Z4mdQ-28" target="Flz4YsGiCt0gHb-Z4mdQ-30">
          <mxGeometry relative="1" as="geometry" />
        </mxCell>
        <mxCell id="Flz4YsGiCt0gHb-Z4mdQ-28" value="" style="rounded=0;whiteSpace=wrap;html=1;" vertex="1" parent="Flz4YsGiCt0gHb-Z4mdQ-1">
          <mxGeometry x="285" y="660" width="120" height="60" as="geometry" />
        </mxCell>
        <mxCell id="Flz4YsGiCt0gHb-Z4mdQ-29" value="更新支付流水状态" style="text;html=1;strokeColor=none;fillColor=none;align=center;verticalAlign=middle;whiteSpace=wrap;rounded=0;" vertex="1" parent="Flz4YsGiCt0gHb-Z4mdQ-1">
          <mxGeometry x="305" y="683.75" width="80" height="12.5" as="geometry" />
        </mxCell>
        <mxCell id="Flz4YsGiCt0gHb-Z4mdQ-30" value="" style="ellipse;whiteSpace=wrap;html=1;" vertex="1" parent="Flz4YsGiCt0gHb-Z4mdQ-1">
          <mxGeometry x="300" y="750" width="90" height="50" as="geometry" />
        </mxCell>
        <mxCell id="Flz4YsGiCt0gHb-Z4mdQ-31" value="end" style="text;html=1;strokeColor=none;fillColor=none;align=center;verticalAlign=middle;whiteSpace=wrap;rounded=0;" vertex="1" parent="Flz4YsGiCt0gHb-Z4mdQ-1">
          <mxGeometry x="325" y="765" width="40" height="20" as="geometry" />
        </mxCell>
        <mxCell id="Flz4YsGiCt0gHb-Z4mdQ-36" style="edgeStyle=orthogonalEdgeStyle;rounded=0;orthogonalLoop=1;jettySize=auto;html=1;exitX=0.5;exitY=1;exitDx=0;exitDy=0;entryX=0.5;entryY=0;entryDx=0;entryDy=0;" edge="1" parent="Flz4YsGiCt0gHb-Z4mdQ-1" source="Flz4YsGiCt0gHb-Z4mdQ-34" target="Flz4YsGiCt0gHb-Z4mdQ-18">
          <mxGeometry relative="1" as="geometry" />
        </mxCell>
        <mxCell id="Flz4YsGiCt0gHb-Z4mdQ-34" value="" style="rounded=0;whiteSpace=wrap;html=1;" vertex="1" parent="Flz4YsGiCt0gHb-Z4mdQ-1">
          <mxGeometry x="287.5" y="240" width="115" height="50" as="geometry" />
        </mxCell>
        <mxCell id="Flz4YsGiCt0gHb-Z4mdQ-35" value="登记支付流水" style="text;html=1;strokeColor=none;fillColor=none;align=center;verticalAlign=middle;whiteSpace=wrap;rounded=0;" vertex="1" parent="Flz4YsGiCt0gHb-Z4mdQ-1">
          <mxGeometry x="307.5" y="255" width="80" height="20" as="geometry" />
        </mxCell>
      </root>
    </mxGraphModel>
  </diagram>
</mxfile>
